<?xml version="1.0" encoding="UTF-8" standalone="no"?>
<svg
   version="1.1"
   width="512px"
   height="512px"
   style="shape-rendering:geometricPrecision; text-rendering:geometricPrecision; image-rendering:optimizeQuality; fill-rule:evenodd; clip-rule:evenodd"
   id="svg1001"
   sodipodi:docname="water-filter.svg"
   inkscape:version="1.2.2 (732a01da63, 2022-12-09)"
   xmlns:inkscape="http://www.inkscape.org/namespaces/inkscape"
   xmlns:sodipodi="http://sodipodi.sourceforge.net/DTD/sodipodi-0.dtd"
   xmlns="http://www.w3.org/2000/svg"
   xmlns:svg="http://www.w3.org/2000/svg">
  <defs
     id="defs1005" />
  <sodipodi:namedview
     id="namedview1003"
     pagecolor="#ffffff"
     bordercolor="#000000"
     borderopacity="0.25"
     inkscape:showpageshadow="2"
     inkscape:pageopacity="0.0"
     inkscape:pagecheckerboard="0"
     inkscape:deskcolor="#d1d1d1"
     showgrid="false"
     inkscape:zoom="1.5606068"
     inkscape:cx="269.12609"
     inkscape:cy="169.80575"
     inkscape:window-width="1366"
     inkscape:window-height="745"
     inkscape:window-x="-8"
     inkscape:window-y="-8"
     inkscape:window-maximized="1"
     inkscape:current-layer="svg1001" />
  <g
     id="g703">
    <path
       style="opacity:0.96"
       fill="#365f6d"
       d="M 343.5,73.5 C 340.5,73.5 337.5,73.5 334.5,73.5C 334.809,68.7325 334.309,64.0658 333,59.5C 331.457,57.6217 329.624,56.1217 327.5,55C 299.833,54.3333 272.167,54.3333 244.5,55C 242.376,56.1217 240.543,57.6217 239,59.5C 237.515,106.44 237.015,153.44 237.5,200.5C 234.833,201.833 232.167,201.833 229.5,200.5C 229.333,152.832 229.5,105.166 230,57.5C 232.773,51.0595 237.606,47.2262 244.5,46C 272.167,45.3333 299.833,45.3333 327.5,46C 336.667,47.1667 341.833,52.3333 343,61.5C 343.499,65.4862 343.666,69.4862 343.5,73.5 Z"
       id="path701" />
  </g>
  <g
     id="g707">
    <path
       style="opacity:0.901"
       fill="#36606e"
       d="M 141.5,73.5 C 138.5,73.5 135.5,73.5 132.5,73.5C 132.825,68.4012 132.325,63.4012 131,58.5C 129.421,56.9588 127.587,55.7922 125.5,55C 98.1667,54.3333 70.8333,54.3333 43.5,55C 40.4265,55.7386 38.2598,57.5719 37,60.5C 36.5,151.166 36.3333,241.833 36.5,332.5C 35.5076,340.316 35.1743,348.316 35.5,356.5C 32.8333,356.5 30.1667,356.5 27.5,356.5C 27.3333,257.166 27.5,157.833 28,58.5C 30.3771,51.4545 35.2104,47.2878 42.5,46C 70.5,45.3333 98.5,45.3333 126.5,46C 134.22,47.3858 139.053,51.8858 141,59.5C 141.499,64.1548 141.666,68.8215 141.5,73.5 Z"
       id="path705" />
  </g>
  <g
     id="g711">
    <path
       style="opacity:1"
       fill="#c2e7eb"
       d="M 132.5,73.5 C 135.5,73.5 138.5,73.5 141.5,73.5C 144.939,73.2529 148.272,73.5863 151.5,74.5C 150.641,77.4521 148.641,79.2854 145.5,80C 137.515,82.5017 129.848,81.835 122.5,78C 121.695,76.8873 121.028,75.7206 120.5,74.5C 124.4,73.5701 128.4,73.2367 132.5,73.5 Z"
       id="path709" />
  </g>
  <g
     id="g715">
    <path
       style="opacity:1"
       fill="#c2e7eb"
       d="M 334.5,73.5 C 337.5,73.5 340.5,73.5 343.5,73.5C 346.939,73.2529 350.272,73.5863 353.5,74.5C 349.469,80.0183 343.969,82.3516 337,81.5C 330.398,82.4476 325.565,80.1143 322.5,74.5C 326.298,73.5166 330.298,73.1832 334.5,73.5 Z"
       id="path713" />
  </g>
  <g
     id="g719">
    <path
       style="opacity:0.999"
       fill="#01b6f1"
       d="M 192.5,98.5 C 192.5,132.833 192.5,167.167 192.5,201.5C 184.5,201.5 176.5,201.5 168.5,201.5C 168.5,167.167 168.5,132.833 168.5,98.5C 176.691,98.203 184.691,98.203 192.5,98.5 Z"
       id="path717" />
  </g>
  <g
     id="g723">
    <path
       style="opacity:0.998"
       fill="#0cb3ed"
       d="M 412.5,98.5 C 412.5,110.833 412.5,123.167 412.5,135.5C 394.674,136.497 376.674,136.83 358.5,136.5C 362.298,135.517 366.298,135.183 370.5,135.5C 370.5,123.167 370.5,110.833 370.5,98.5C 384.49,97.3857 398.49,97.3857 412.5,98.5 Z"
       id="path721" />
  </g>
  <g
     id="g727">
    <path
       style="opacity:1"
       fill="#42d1fd"
       d="M 109.5,76.5 C 111.167,76.5 112.833,76.5 114.5,76.5C 114.5,83.8333 114.5,91.1667 114.5,98.5C 104.833,98.5 95.1667,98.5 85.5,98.5C 85.5,132.833 85.5,167.167 85.5,201.5C 76.9832,201.826 68.6499,201.493 60.5,200.5C 60.3333,166.165 60.5,131.832 61,97.5C 75.7777,87.3628 91.9444,80.3628 109.5,76.5 Z"
       id="path725" />
  </g>
  <g
     id="g731">
    <path
       style="opacity:1"
       fill="#1fc8fb"
       d="M 120.5,74.5 C 121.028,75.7206 121.695,76.8873 122.5,78C 129.848,81.835 137.515,82.5017 145.5,80C 148.641,79.2854 150.641,77.4521 151.5,74.5C 173.71,77.2309 193.71,85.2309 211.5,98.5C 205.167,98.5 198.833,98.5 192.5,98.5C 184.691,98.203 176.691,98.203 168.5,98.5C 150.833,98.5 133.167,98.5 115.5,98.5C 115.5,132.833 115.5,167.167 115.5,201.5C 105.5,201.5 95.5,201.5 85.5,201.5C 85.5,167.167 85.5,132.833 85.5,98.5C 95.1667,98.5 104.833,98.5 114.5,98.5C 114.5,91.1667 114.5,83.8333 114.5,76.5C 112.833,76.5 111.167,76.5 109.5,76.5C 112.909,75.0966 116.575,74.4299 120.5,74.5 Z"
       id="path729" />
  </g>
  <g
     id="g735">
    <path
       style="opacity:1"
       fill="#01bffc"
       d="M 168.5,98.5 C 168.5,132.833 168.5,167.167 168.5,201.5C 150.833,201.5 133.167,201.5 115.5,201.5C 115.5,167.167 115.5,132.833 115.5,98.5C 133.167,98.5 150.833,98.5 168.5,98.5 Z"
       id="path733" />
  </g>
  <g
     id="g739">
    <path
       style="opacity:1"
       fill="#01ace6"
       d="M 192.5,98.5 C 198.833,98.5 205.167,98.5 211.5,98.5C 211.5,132.5 211.5,166.5 211.5,200.5C 205.355,201.49 199.022,201.823 192.5,201.5C 192.5,167.167 192.5,132.833 192.5,98.5 Z"
       id="path737" />
  </g>
  <g
     id="g743">
    <path
       style="opacity:1"
       fill="#42d1fd"
       d="M 311.5,76.5 C 313.167,76.5 314.833,76.5 316.5,76.5C 316.5,83.5 316.5,90.5 316.5,97.5C 306.833,97.5 297.167,97.5 287.5,97.5C 287.5,132.167 287.5,166.833 287.5,201.5C 278.983,201.826 270.65,201.493 262.5,200.5C 262.333,166.165 262.5,131.832 263,97.5C 277.67,87.1078 293.836,80.1078 311.5,76.5 Z"
       id="path741" />
  </g>
  <g
     id="g747">
    <path
       style="opacity:1"
       fill="#21c9fc"
       d="M 322.5,74.5 C 325.565,80.1143 330.398,82.4476 337,81.5C 343.969,82.3516 349.469,80.0183 353.5,74.5C 375.485,77.3427 395.152,85.3427 412.5,98.5C 398.49,97.3857 384.49,97.3857 370.5,98.5C 352.5,98.5 334.5,98.5 316.5,98.5C 316.5,132.833 316.5,167.167 316.5,201.5C 306.833,201.5 297.167,201.5 287.5,201.5C 287.5,166.833 287.5,132.167 287.5,97.5C 297.167,97.5 306.833,97.5 316.5,97.5C 316.5,90.5 316.5,83.5 316.5,76.5C 314.833,76.5 313.167,76.5 311.5,76.5C 314.909,75.0966 318.575,74.4299 322.5,74.5 Z"
       id="path745" />
  </g>
  <g
     id="g751">
    <path
       style="opacity:1"
       fill="#01bffc"
       d="M 370.5,98.5 C 370.5,110.833 370.5,123.167 370.5,135.5C 366.298,135.183 362.298,135.517 358.5,136.5C 355.944,137.543 353.777,139.21 352,141.5C 351.5,161.497 351.333,181.497 351.5,201.5C 339.833,201.5 328.167,201.5 316.5,201.5C 316.5,167.167 316.5,132.833 316.5,98.5C 334.5,98.5 352.5,98.5 370.5,98.5 Z"
       id="path749" />
  </g>
  <g
     id="g755">
    <path
       style="opacity:0.995"
       fill="#bbdbdb"
       d="M 412.5,135.5 C 434.169,135.333 455.836,135.5 477.5,136C 480,137.167 481.833,139 483,141.5C 483.5,211.166 483.667,280.833 483.5,350.5C 481.12,355.364 477.12,357.698 471.5,357.5C 467.167,357.5 462.833,357.5 458.5,357.5C 442.833,357.5 427.167,357.5 411.5,357.5C 404.5,357.5 397.5,357.5 390.5,357.5C 385.833,357.5 381.167,357.5 376.5,357.5C 376.831,385.672 376.498,413.672 375.5,441.5C 375.5,413.5 375.5,385.5 375.5,357.5C 371.5,357.5 367.5,357.5 363.5,357.5C 356.143,358.14 352.143,354.807 351.5,347.5C 351.5,347.167 351.5,346.833 351.5,346.5C 351.5,342.5 351.5,338.5 351.5,334.5C 351.5,334.167 351.5,333.833 351.5,333.5C 351.5,325.167 351.5,316.833 351.5,308.5C 351.5,308.167 351.5,307.833 351.5,307.5C 351.5,303.5 351.5,299.5 351.5,295.5C 351.5,268.5 351.5,241.5 351.5,214.5C 351.5,214.167 351.5,213.833 351.5,213.5C 351.5,209.5 351.5,205.5 351.5,201.5C 351.333,181.497 351.5,161.497 352,141.5C 353.777,139.21 355.944,137.543 358.5,136.5C 376.674,136.83 394.674,136.497 412.5,135.5 Z"
       id="path753" />
  </g>
  <g
     id="g759">
    <path
       style="opacity:1"
       fill="#fc5635"
       d="M 379.5,161.5 C 386.187,161.023 389.354,164.023 389,170.5C 386.928,175.143 383.428,176.643 378.5,175C 373.045,170.011 373.378,165.511 379.5,161.5 Z"
       id="path757" />
  </g>
  <g
     id="g763">
    <path
       style="opacity:1"
       fill="#11bffb"
       d="M 402.5,161.5 C 411.872,161.414 414.539,165.581 410.5,174C 401.816,177.645 397.982,174.812 399,165.5C 400.102,164.051 401.269,162.718 402.5,161.5 Z"
       id="path761" />
  </g>
  <g
     id="g767">
    <path
       style="opacity:1"
       fill="#17c0fb"
       d="M 426.5,161.5 C 433.657,161.155 436.824,164.488 436,171.5C 431.333,176.833 426.667,176.833 422,171.5C 421.077,167.017 422.577,163.683 426.5,161.5 Z"
       id="path765" />
  </g>
  <g
     id="g771">
    <path
       style="opacity:1"
       fill="#10bffb"
       d="M 449.5,161.5 C 458.549,161.701 461.215,165.868 457.5,174C 448.816,177.645 444.982,174.812 446,165.5C 446.69,163.65 447.856,162.316 449.5,161.5 Z"
       id="path769" />
  </g>
  <g
     id="g775">
    <path
       style="opacity:1"
       fill="#fc3d0f"
       d="M 379.5,188.5 C 386.169,188.005 389.336,191.005 389,197.5C 386.928,202.143 383.428,203.643 378.5,202C 373.045,197.011 373.378,192.511 379.5,188.5 Z"
       id="path773" />
  </g>
  <g
     id="g779">
    <path
       style="opacity:1"
       fill="#fd3808"
       d="M 402.5,188.5 C 411.61,188.752 414.277,192.918 410.5,201C 401.816,204.645 397.982,201.812 399,192.5C 400.376,191.295 401.542,189.962 402.5,188.5 Z"
       id="path777" />
  </g>
  <g
     id="g783">
    <path
       style="opacity:1"
       fill="#f48825"
       d="M 426.5,188.5 C 433.169,188.005 436.336,191.005 436,197.5C 433.928,202.143 430.428,203.643 425.5,202C 420.045,197.011 420.378,192.511 426.5,188.5 Z"
       id="path781" />
  </g>
  <g
     id="g787">
    <path
       style="opacity:1"
       fill="#f58620"
       d="M 449.5,188.5 C 458.61,188.752 461.277,192.918 457.5,201C 448.816,204.645 444.982,201.812 446,192.5C 447.376,191.295 448.542,189.962 449.5,188.5 Z"
       id="path785" />
  </g>
  <g
     id="g791">
    <path
       style="opacity:0.995"
       fill="#c9e8eb"
       d="M 60.5,200.5 C 68.6499,201.493 76.9832,201.826 85.5,201.5C 95.5,201.5 105.5,201.5 115.5,201.5C 133.167,201.5 150.833,201.5 168.5,201.5C 176.5,201.5 184.5,201.5 192.5,201.5C 199.022,201.823 205.355,201.49 211.5,200.5C 217.5,200.5 223.5,200.5 229.5,200.5C 232.167,201.833 234.833,201.833 237.5,200.5C 245.833,200.5 254.167,200.5 262.5,200.5C 270.65,201.493 278.983,201.826 287.5,201.5C 297.167,201.5 306.833,201.5 316.5,201.5C 328.167,201.5 339.833,201.5 351.5,201.5C 351.5,205.5 351.5,209.5 351.5,213.5C 335.5,213.5 319.5,213.5 303.5,213.5C 303.169,241.005 303.502,268.338 304.5,295.5C 308.5,295.5 312.5,295.5 316.5,295.5C 328.167,295.5 339.833,295.5 351.5,295.5C 351.5,299.5 351.5,303.5 351.5,307.5C 335.5,307.5 319.5,307.5 303.5,307.5C 303.5,320.5 303.5,333.5 303.5,346.5C 303.5,346.833 303.5,347.167 303.5,347.5C 303.5,350.833 303.5,354.167 303.5,357.5C 312.167,357.5 320.833,357.5 329.5,357.5C 330.833,357.5 332.167,357.5 333.5,357.5C 333.5,354.167 333.5,350.833 333.5,347.5C 337.5,347.5 341.5,347.5 345.5,347.5C 345.5,354.833 345.5,362.167 345.5,369.5C 340.167,369.5 334.833,369.5 329.5,369.5C 316.833,369.5 304.167,369.5 291.5,369.5C 291.5,362.167 291.5,354.833 291.5,347.5C 291.5,347.167 291.5,346.833 291.5,346.5C 291.5,342.5 291.5,338.5 291.5,334.5C 291.5,334.167 291.5,333.833 291.5,333.5C 291.5,325.167 291.5,316.833 291.5,308.5C 281.833,308.5 272.167,308.5 262.5,308.5C 254.167,308.5 245.833,308.5 237.5,308.5C 234.833,308.5 232.167,308.5 229.5,308.5C 223.5,308.5 217.5,308.5 211.5,308.5C 204.5,308.5 197.5,308.5 190.5,308.5C 190.5,316.833 190.5,325.167 190.5,333.5C 190.5,337.833 190.5,342.167 190.5,346.5C 190.5,346.833 190.5,347.167 190.5,347.5C 190.825,355.019 190.492,362.352 189.5,369.5C 176.167,369.5 162.833,369.5 149.5,369.5C 149.167,369.5 148.833,369.5 148.5,369.5C 144.5,369.5 140.5,369.5 136.5,369.5C 136.5,362.167 136.5,354.833 136.5,347.5C 140.5,347.5 144.5,347.5 148.5,347.5C 148.187,351.042 148.521,354.375 149.5,357.5C 158.833,357.5 168.167,357.5 177.5,357.5C 177.5,354.167 177.5,350.833 177.5,347.5C 177.5,347.167 177.5,346.833 177.5,346.5C 177.5,342.5 177.5,338.5 177.5,334.5C 177.5,334.167 177.5,333.833 177.5,333.5C 177.5,325.167 177.5,316.833 177.5,308.5C 156.833,308.5 136.167,308.5 115.5,308.5C 105.5,308.5 95.5,308.5 85.5,308.5C 77.1667,308.5 68.8333,308.5 60.5,308.5C 54.8333,308.5 49.1667,308.5 43.5,308.5C 43.5,304.167 43.5,299.833 43.5,295.5C 49.1667,295.5 54.8333,295.5 60.5,295.5C 61.5,295.5 62.5,295.5 63.5,295.5C 63.5,268.5 63.5,241.5 63.5,214.5C 62.5,214.5 61.5,214.5 60.5,214.5C 54.8333,214.5 49.1667,214.5 43.5,214.5C 43.5,209.833 43.5,205.167 43.5,200.5C 49.1667,200.5 54.8333,200.5 60.5,200.5 Z M 211.5,214.5 C 217.5,214.5 223.5,214.5 229.5,214.5C 229.5,241.5 229.5,268.5 229.5,295.5C 223.5,295.5 217.5,295.5 211.5,295.5C 211.5,268.5 211.5,241.5 211.5,214.5 Z M 237.5,214.5 C 245.833,214.5 254.167,214.5 262.5,214.5C 262.5,241.5 262.5,268.5 262.5,295.5C 254.167,295.5 245.833,295.5 237.5,295.5C 237.5,268.5 237.5,241.5 237.5,214.5 Z M 211.5,308.5 C 217.5,308.5 223.5,308.5 229.5,308.5C 229.5,316.5 229.5,324.5 229.5,332.5C 223.5,332.5 217.5,332.5 211.5,332.5C 211.5,324.5 211.5,316.5 211.5,308.5 Z M 237.5,308.5 C 245.833,308.5 254.167,308.5 262.5,308.5C 262.5,316.5 262.5,324.5 262.5,332.5C 254.167,332.5 245.833,332.5 237.5,332.5C 237.5,324.5 237.5,316.5 237.5,308.5 Z"
       id="path789" />
  </g>
  <g
     id="g795">
    <path
       style="opacity:1"
       fill="#44d0fd"
       d="M 60.5,214.5 C 61.5,214.5 62.5,214.5 63.5,214.5C 63.5,241.5 63.5,268.5 63.5,295.5C 62.5,295.5 61.5,295.5 60.5,295.5C 60.5,268.5 60.5,241.5 60.5,214.5 Z"
       id="path793" />
  </g>
  <g
     id="g799">
    <path
       style="opacity:1"
       fill="#4ed1fb"
       d="M 177.5,214.5 C 156.833,214.5 136.167,214.5 115.5,214.5C 105.5,214.5 95.5,214.5 85.5,214.5C 85.5,241.5 85.5,268.5 85.5,295.5C 82.5,295.5 79.5,295.5 76.5,295.5C 76.5,268.167 76.5,240.833 76.5,213.5C 110.337,213.168 144.004,213.502 177.5,214.5 Z"
       id="path797" />
  </g>
  <g
     id="g803">
    <path
       style="opacity:1"
       fill="#26c8fd"
       d="M 115.5,214.5 C 115.5,241.5 115.5,268.5 115.5,295.5C 105.5,295.5 95.5,295.5 85.5,295.5C 85.5,268.5 85.5,241.5 85.5,214.5C 95.5,214.5 105.5,214.5 115.5,214.5 Z"
       id="path801" />
  </g>
  <g
     id="g807">
    <path
       style="opacity:1"
       fill="#01bdfb"
       d="M 115.5,214.5 C 136.167,214.5 156.833,214.5 177.5,214.5C 177.5,241.5 177.5,268.5 177.5,295.5C 156.833,295.5 136.167,295.5 115.5,295.5C 115.5,268.5 115.5,241.5 115.5,214.5 Z"
       id="path805" />
  </g>
  <g
     id="g811">
    <path
       style="opacity:1"
       fill="#00ade6"
       d="M 211.5,214.5 C 211.5,241.5 211.5,268.5 211.5,295.5C 204.5,295.5 197.5,295.5 190.5,295.5C 190.5,268.5 190.5,241.5 190.5,214.5C 197.5,214.5 204.5,214.5 211.5,214.5 Z"
       id="path809" />
  </g>
  <g
     id="g815">
    <path
       style="opacity:0.972"
       fill="#365f6e"
       d="M 229.5,214.5 C 232.167,214.5 234.833,214.5 237.5,214.5C 237.5,241.5 237.5,268.5 237.5,295.5C 234.833,295.5 232.167,295.5 229.5,295.5C 229.5,268.5 229.5,241.5 229.5,214.5 Z"
       id="path813" />
  </g>
  <g
     id="g819">
    <path
       style="opacity:1"
       fill="#44d0fc"
       d="M 262.5,214.5 C 272.167,214.5 281.833,214.5 291.5,214.5C 291.5,241.5 291.5,268.5 291.5,295.5C 281.833,295.5 272.167,295.5 262.5,295.5C 262.5,268.5 262.5,241.5 262.5,214.5 Z"
       id="path817" />
  </g>
  <g
     id="g823">
    <path
       style="opacity:1"
       fill="#78d8f3"
       d="M 351.5,213.5 C 351.5,213.833 351.5,214.167 351.5,214.5C 339.833,214.5 328.167,214.5 316.5,214.5C 312.5,214.5 308.5,214.5 304.5,214.5C 304.5,241.5 304.5,268.5 304.5,295.5C 303.502,268.338 303.169,241.005 303.5,213.5C 319.5,213.5 335.5,213.5 351.5,213.5 Z"
       id="path821" />
  </g>
  <g
     id="g827">
    <path
       style="opacity:1"
       fill="#27c9fd"
       d="M 316.5,214.5 C 316.5,241.5 316.5,268.5 316.5,295.5C 312.5,295.5 308.5,295.5 304.5,295.5C 304.5,268.5 304.5,241.5 304.5,214.5C 308.5,214.5 312.5,214.5 316.5,214.5 Z"
       id="path825" />
  </g>
  <g
     id="g831">
    <path
       style="opacity:1"
       fill="#01bffc"
       d="M 316.5,214.5 C 328.167,214.5 339.833,214.5 351.5,214.5C 351.5,241.5 351.5,268.5 351.5,295.5C 339.833,295.5 328.167,295.5 316.5,295.5C 316.5,268.5 316.5,241.5 316.5,214.5 Z"
       id="path829" />
  </g>
  <g
     id="g835">
    <path
       style="opacity:1"
       fill="#487480"
       d="M 379.5,215.5 C 386.169,215.005 389.336,218.005 389,224.5C 384.833,230.759 380.167,231.092 375,225.5C 374.077,221.017 375.577,217.683 379.5,215.5 Z"
       id="path833" />
  </g>
  <g
     id="g839">
    <path
       style="opacity:1"
       fill="#46727e"
       d="M 402.5,215.5 C 412.629,216.106 414.963,220.606 409.5,229C 401.225,231.057 397.725,227.89 399,219.5C 400.376,218.295 401.542,216.962 402.5,215.5 Z"
       id="path837" />
  </g>
  <g
     id="g843">
    <path
       style="opacity:1"
       fill="#fbfcfd"
       d="M 426.5,215.5 C 433.531,215.255 436.698,218.588 436,225.5C 431.333,230.833 426.667,230.833 422,225.5C 421.077,221.017 422.577,217.683 426.5,215.5 Z"
       id="path841" />
  </g>
  <g
     id="g847">
    <path
       style="opacity:1"
       fill="#fcfdfd"
       d="M 449.5,215.5 C 458.61,215.752 461.277,219.918 457.5,228C 448.816,231.645 444.982,228.812 446,219.5C 447.376,218.295 448.542,216.962 449.5,215.5 Z"
       id="path845" />
  </g>
  <g
     id="g851">
    <path
       style="opacity:1"
       fill="#36616e"
       d="M 369.5,260.5 C 401.167,260.5 432.833,260.5 464.5,260.5C 464.5,261.5 464.5,262.5 464.5,263.5C 433.833,263.5 403.167,263.5 372.5,263.5C 372.5,283.833 372.5,304.167 372.5,324.5C 371.5,324.5 370.5,324.5 369.5,324.5C 369.5,303.167 369.5,281.833 369.5,260.5 Z"
       id="path849" />
  </g>
  <g
     id="g855">
    <path
       style="opacity:1"
       fill="#426f7b"
       d="M 464.5,263.5 C 464.5,284.167 464.5,304.833 464.5,325.5C 432.662,325.832 400.996,325.498 369.5,324.5C 370.5,324.5 371.5,324.5 372.5,324.5C 372.5,304.167 372.5,283.833 372.5,263.5C 403.167,263.5 433.833,263.5 464.5,263.5 Z"
       id="path853" />
  </g>
  <g
     id="g859">
    <path
       style="opacity:1"
       fill="#668d96"
       d="M 369.5,260.5 C 401.329,259.502 433.329,259.168 465.5,259.5C 465.831,281.673 465.497,303.673 464.5,325.5C 464.5,304.833 464.5,284.167 464.5,263.5C 464.5,262.5 464.5,261.5 464.5,260.5C 432.833,260.5 401.167,260.5 369.5,260.5 Z"
       id="path857" />
  </g>
  <g
     id="g863">
    <path
       style="opacity:1"
       fill="#46d0fd"
       d="M 60.5,308.5 C 68.8333,308.5 77.1667,308.5 85.5,308.5C 85.5,316.833 85.5,325.167 85.5,333.5C 77.0817,333.802 68.7483,333.469 60.5,332.5C 60.5,324.5 60.5,316.5 60.5,308.5 Z"
       id="path861" />
  </g>
  <g
     id="g867">
    <path
       style="opacity:1"
       fill="#26c8fd"
       d="M 85.5,308.5 C 95.5,308.5 105.5,308.5 115.5,308.5C 115.5,316.833 115.5,325.167 115.5,333.5C 105.5,333.5 95.5,333.5 85.5,333.5C 85.5,325.167 85.5,316.833 85.5,308.5 Z"
       id="path865" />
  </g>
  <g
     id="g871">
    <path
       style="opacity:1"
       fill="#01bdfb"
       d="M 115.5,308.5 C 136.167,308.5 156.833,308.5 177.5,308.5C 177.5,316.833 177.5,325.167 177.5,333.5C 156.833,333.5 136.167,333.5 115.5,333.5C 115.5,325.167 115.5,316.833 115.5,308.5 Z"
       id="path869" />
  </g>
  <g
     id="g875">
    <path
       style="opacity:1"
       fill="#00ade6"
       d="M 211.5,308.5 C 211.5,316.5 211.5,324.5 211.5,332.5C 210.833,332.5 210.5,332.833 210.5,333.5C 203.833,333.5 197.167,333.5 190.5,333.5C 190.5,325.167 190.5,316.833 190.5,308.5C 197.5,308.5 204.5,308.5 211.5,308.5 Z"
       id="path873" />
  </g>
  <g
     id="g879">
    <path
       style="opacity:0.984"
       fill="#38616c"
       d="M 229.5,308.5 C 232.167,308.5 234.833,308.5 237.5,308.5C 237.5,316.5 237.5,324.5 237.5,332.5C 237.5,340.5 237.5,348.5 237.5,356.5C 234.833,356.5 232.167,356.5 229.5,356.5C 229.5,348.5 229.5,340.5 229.5,332.5C 229.5,324.5 229.5,316.5 229.5,308.5 Z"
       id="path877" />
  </g>
  <g
     id="g883">
    <path
       style="opacity:1"
       fill="#44d0fc"
       d="M 262.5,308.5 C 272.167,308.5 281.833,308.5 291.5,308.5C 291.5,316.833 291.5,325.167 291.5,333.5C 281.75,333.806 272.084,333.473 262.5,332.5C 262.5,324.5 262.5,316.5 262.5,308.5 Z"
       id="path881" />
  </g>
  <g
     id="g887">
    <path
       style="opacity:1"
       fill="#6cc5d6"
       d="M 351.5,307.5 C 351.5,307.833 351.5,308.167 351.5,308.5C 335.833,308.5 320.167,308.5 304.5,308.5C 304.5,316.833 304.5,325.167 304.5,333.5C 320.167,333.5 335.833,333.5 351.5,333.5C 351.5,333.833 351.5,334.167 351.5,334.5C 335.833,334.5 320.167,334.5 304.5,334.5C 304.5,338.5 304.5,342.5 304.5,346.5C 304.167,346.5 303.833,346.5 303.5,346.5C 303.5,333.5 303.5,320.5 303.5,307.5C 319.5,307.5 335.5,307.5 351.5,307.5 Z"
       id="path885" />
  </g>
  <g
     id="g891">
    <path
       style="opacity:1"
       fill="#0ec1fc"
       d="M 351.5,308.5 C 351.5,316.833 351.5,325.167 351.5,333.5C 335.833,333.5 320.167,333.5 304.5,333.5C 304.5,325.167 304.5,316.833 304.5,308.5C 320.167,308.5 335.833,308.5 351.5,308.5 Z"
       id="path889" />
  </g>
  <g
     id="g895">
    <path
       style="opacity:0.998"
       fill="#c3ec18"
       d="M 36.5,332.5 C 44.5,332.5 52.5,332.5 60.5,332.5C 59.0813,333.451 57.4147,333.784 55.5,333.5C 54.5139,337.97 54.1805,342.637 54.5,347.5C 58.5,347.5 62.5,347.5 66.5,347.5C 66.1702,364.009 66.5036,380.342 67.5,396.5C 74.1667,396.5 80.8333,396.5 87.5,396.5C 88.4964,380.342 88.8298,364.009 88.5,347.5C 101.5,347.5 114.5,347.5 127.5,347.5C 127.5,358.5 127.5,369.5 127.5,380.5C 134.833,380.5 142.167,380.5 149.5,380.5C 149.5,376.833 149.5,373.167 149.5,369.5C 162.833,369.5 176.167,369.5 189.5,369.5C 189.5,378.5 189.5,387.5 189.5,396.5C 196.167,396.5 202.833,396.5 209.5,396.5C 210.496,380.342 210.83,364.009 210.5,347.5C 212.735,347.795 214.735,347.461 216.5,346.5C 216.5,342.167 216.5,337.833 216.5,333.5C 214.5,333.5 212.5,333.5 210.5,333.5C 210.5,332.833 210.833,332.5 211.5,332.5C 217.5,332.5 223.5,332.5 229.5,332.5C 229.5,340.5 229.5,348.5 229.5,356.5C 232.167,356.5 234.833,356.5 237.5,356.5C 237.5,348.5 237.5,340.5 237.5,332.5C 245.833,332.5 254.167,332.5 262.5,332.5C 260.735,333.461 258.735,333.795 256.5,333.5C 256.5,338.167 256.5,342.833 256.5,347.5C 260.5,347.5 264.5,347.5 268.5,347.5C 268.5,363.833 268.5,380.167 268.5,396.5C 275.5,396.5 282.5,396.5 289.5,396.5C 290.167,387.5 290.833,378.5 291.5,369.5C 304.167,369.5 316.833,369.5 329.5,369.5C 329.5,372.833 329.5,376.167 329.5,379.5C 336.5,379.5 343.5,379.5 350.5,379.5C 350.5,368.833 350.5,358.167 350.5,347.5C 350.833,347.5 351.167,347.5 351.5,347.5C 352.143,354.807 356.143,358.14 363.5,357.5C 363.5,385.5 363.5,413.5 363.5,441.5C 367.5,441.5 371.5,441.5 375.5,441.5C 376.498,413.672 376.831,385.672 376.5,357.5C 381.167,357.5 385.833,357.5 390.5,357.5C 390.5,370.5 390.5,383.5 390.5,396.5C 397.5,396.5 404.5,396.5 411.5,396.5C 411.5,383.5 411.5,370.5 411.5,357.5C 427.167,357.5 442.833,357.5 458.5,357.5C 458.5,385.5 458.5,413.5 458.5,441.5C 462.833,441.5 467.167,441.5 471.5,441.5C 471.5,413.5 471.5,385.5 471.5,357.5C 477.12,357.698 481.12,355.364 483.5,350.5C 483.5,388.833 483.5,427.167 483.5,465.5C 331.5,465.5 179.5,465.5 27.5,465.5C 27.5,429.167 27.5,392.833 27.5,356.5C 30.1667,356.5 32.8333,356.5 35.5,356.5C 35.1743,348.316 35.5076,340.316 36.5,332.5 Z"
       id="path893" />
  </g>
  <g
     id="g899">
    <path
       style="opacity:1"
       fill="#389d9c"
       d="M 60.5,332.5 C 68.7483,333.469 77.0817,333.802 85.5,333.5C 95.5,333.5 105.5,333.5 115.5,333.5C 136.167,333.5 156.833,333.5 177.5,333.5C 177.5,333.833 177.5,334.167 177.5,334.5C 156.5,334.5 135.5,334.5 114.5,334.5C 94.8333,334.5 75.1667,334.5 55.5,334.5C 55.5,334.167 55.5,333.833 55.5,333.5C 57.4147,333.784 59.0813,333.451 60.5,332.5 Z"
       id="path897" />
  </g>
  <g
     id="g903">
    <path
       style="opacity:1"
       fill="#3b95b8"
       d="M 55.5,334.5 C 75.1667,334.5 94.8333,334.5 114.5,334.5C 114.5,338.5 114.5,342.5 114.5,346.5C 94.8333,346.5 75.1667,346.5 55.5,346.5C 55.5,342.5 55.5,338.5 55.5,334.5 Z"
       id="path901" />
  </g>
  <g
     id="g907">
    <path
       style="opacity:1"
       fill="#0c7ba7"
       d="M 114.5,334.5 C 135.5,334.5 156.5,334.5 177.5,334.5C 177.5,338.5 177.5,342.5 177.5,346.5C 167.833,346.5 158.167,346.5 148.5,346.5C 141.5,346.5 134.5,346.5 127.5,346.5C 123.167,346.5 118.833,346.5 114.5,346.5C 114.5,342.5 114.5,338.5 114.5,334.5 Z"
       id="path905" />
  </g>
  <g
     id="g911">
    <path
       style="opacity:1"
       fill="#0e7197"
       d="M 190.5,333.5 C 197.167,333.5 203.833,333.5 210.5,333.5C 212.5,333.5 214.5,333.5 216.5,333.5C 216.5,337.833 216.5,342.167 216.5,346.5C 207.833,346.5 199.167,346.5 190.5,346.5C 190.5,342.167 190.5,337.833 190.5,333.5 Z"
       id="path909" />
  </g>
  <g
     id="g915">
    <path
       style="opacity:1"
       fill="#4c9fbf"
       d="M 291.5,334.5 C 291.5,338.5 291.5,342.5 291.5,346.5C 280.167,346.5 268.833,346.5 257.5,346.5C 257.5,342.5 257.5,338.5 257.5,334.5C 268.833,334.5 280.167,334.5 291.5,334.5 Z"
       id="path913" />
  </g>
  <g
     id="g919">
    <path
       style="opacity:1"
       fill="#1680aa"
       d="M 351.5,334.5 C 351.5,338.5 351.5,342.5 351.5,346.5C 335.833,346.5 320.167,346.5 304.5,346.5C 304.5,342.5 304.5,338.5 304.5,334.5C 320.167,334.5 335.833,334.5 351.5,334.5 Z"
       id="path917" />
  </g>
  <g
     id="g923">
    <path
       style="opacity:1"
       fill="#6b9856"
       d="M 55.5,333.5 C 55.5,333.833 55.5,334.167 55.5,334.5C 55.5,338.5 55.5,342.5 55.5,346.5C 75.1667,346.5 94.8333,346.5 114.5,346.5C 118.833,346.5 123.167,346.5 127.5,346.5C 127.5,346.833 127.5,347.167 127.5,347.5C 114.5,347.5 101.5,347.5 88.5,347.5C 88.8298,364.009 88.4964,380.342 87.5,396.5C 87.5,380.167 87.5,363.833 87.5,347.5C 80.8333,347.5 74.1667,347.5 67.5,347.5C 67.5,363.833 67.5,380.167 67.5,396.5C 66.5036,380.342 66.1702,364.009 66.5,347.5C 62.5,347.5 58.5,347.5 54.5,347.5C 54.1805,342.637 54.5139,337.97 55.5,333.5 Z"
       id="path921" />
  </g>
  <g
     id="g927">
    <path
       style="opacity:1"
       fill="#61a464"
       d="M 148.5,346.5 C 158.167,346.5 167.833,346.5 177.5,346.5C 177.5,346.833 177.5,347.167 177.5,347.5C 168.167,347.5 158.833,347.5 149.5,347.5C 149.5,350.833 149.5,354.167 149.5,357.5C 148.521,354.375 148.187,351.042 148.5,347.5C 148.5,347.167 148.5,346.833 148.5,346.5 Z"
       id="path925" />
  </g>
  <g
     id="g931">
    <path
       style="opacity:1"
       fill="#62a995"
       d="M 262.5,332.5 C 272.084,333.473 281.75,333.806 291.5,333.5C 291.5,333.833 291.5,334.167 291.5,334.5C 280.167,334.5 268.833,334.5 257.5,334.5C 257.5,338.5 257.5,342.5 257.5,346.5C 268.833,346.5 280.167,346.5 291.5,346.5C 291.5,346.833 291.5,347.167 291.5,347.5C 290.833,347.5 290.167,347.5 289.5,347.5C 282.5,347.5 275.5,347.5 268.5,347.5C 264.5,347.5 260.5,347.5 256.5,347.5C 256.5,342.833 256.5,338.167 256.5,333.5C 258.735,333.795 260.735,333.461 262.5,332.5 Z"
       id="path929" />
  </g>
  <g
     id="g935">
    <path
       style="opacity:1"
       fill="#679681"
       d="M 303.5,347.5 C 303.5,347.167 303.5,346.833 303.5,346.5C 303.833,346.5 304.167,346.5 304.5,346.5C 320.167,346.5 335.833,346.5 351.5,346.5C 351.5,346.833 351.5,347.167 351.5,347.5C 351.167,347.5 350.833,347.5 350.5,347.5C 349.167,347.5 347.833,347.5 346.5,347.5C 346.825,355.019 346.492,362.352 345.5,369.5C 345.5,362.167 345.5,354.833 345.5,347.5C 341.5,347.5 337.5,347.5 333.5,347.5C 333.5,350.833 333.5,354.167 333.5,357.5C 332.167,357.5 330.833,357.5 329.5,357.5C 329.5,357.167 329.5,356.833 329.5,356.5C 330.5,356.5 331.5,356.5 332.5,356.5C 332.5,353.5 332.5,350.5 332.5,347.5C 331.5,347.5 330.5,347.5 329.5,347.5C 321.167,347.5 312.833,347.5 304.5,347.5C 304.167,347.5 303.833,347.5 303.5,347.5 Z"
       id="path933" />
  </g>
  <g
     id="g939">
    <path
       style="opacity:1"
       fill="#272827"
       d="M 87.5,396.5 C 80.8333,396.5 74.1667,396.5 67.5,396.5C 67.5,380.167 67.5,363.833 67.5,347.5C 74.1667,347.5 80.8333,347.5 87.5,347.5C 87.5,363.833 87.5,380.167 87.5,396.5 Z"
       id="path937" />
  </g>
  <g
     id="g943">
    <path
       style="opacity:1"
       fill="#272827"
       d="M 128.5,347.5 C 130.833,347.5 133.167,347.5 135.5,347.5C 135.5,355.167 135.5,362.833 135.5,370.5C 139.833,370.5 144.167,370.5 148.5,370.5C 148.5,373.5 148.5,376.5 148.5,379.5C 141.833,379.5 135.167,379.5 128.5,379.5C 128.5,368.833 128.5,358.167 128.5,347.5 Z"
       id="path941" />
  </g>
  <g
     id="g947">
    <path
       style="opacity:1"
       fill="#c4ec28"
       d="M 177.5,347.5 C 177.5,350.833 177.5,354.167 177.5,357.5C 168.167,357.5 158.833,357.5 149.5,357.5C 149.5,354.167 149.5,350.833 149.5,347.5C 158.833,347.5 168.167,347.5 177.5,347.5 Z"
       id="path945" />
  </g>
  <g
     id="g951">
    <path
       style="opacity:1"
       fill="#282828"
       d="M 190.5,347.5 C 196.833,347.5 203.167,347.5 209.5,347.5C 209.5,363.833 209.5,380.167 209.5,396.5C 202.833,396.5 196.167,396.5 189.5,396.5C 189.5,387.5 189.5,378.5 189.5,369.5C 190.492,362.352 190.825,355.019 190.5,347.5 Z"
       id="path949" />
  </g>
  <g
     id="g955">
    <path
       style="opacity:1"
       fill="#617d35"
       d="M 190.5,347.5 C 190.5,347.167 190.5,346.833 190.5,346.5C 199.167,346.5 207.833,346.5 216.5,346.5C 214.735,347.461 212.735,347.795 210.5,347.5C 210.83,364.009 210.496,380.342 209.5,396.5C 209.5,380.167 209.5,363.833 209.5,347.5C 203.167,347.5 196.833,347.5 190.5,347.5 Z"
       id="path953" />
  </g>
  <g
     id="g959">
    <path
       style="opacity:1"
       fill="#282827"
       d="M 268.5,347.5 C 275.5,347.5 282.5,347.5 289.5,347.5C 289.5,363.833 289.5,380.167 289.5,396.5C 282.5,396.5 275.5,396.5 268.5,396.5C 268.5,380.167 268.5,363.833 268.5,347.5 Z"
       id="path957" />
  </g>
  <g
     id="g963">
    <path
       style="opacity:1"
       fill="#aacb33"
       d="M 289.5,347.5 C 290.167,347.5 290.833,347.5 291.5,347.5C 291.5,354.833 291.5,362.167 291.5,369.5C 290.833,378.5 290.167,387.5 289.5,396.5C 289.5,380.167 289.5,363.833 289.5,347.5 Z"
       id="path961" />
  </g>
  <g
     id="g967">
    <path
       style="opacity:1"
       fill="#c3ed17"
       d="M 304.5,347.5 C 312.833,347.5 321.167,347.5 329.5,347.5C 329.5,350.5 329.5,353.5 329.5,356.5C 321.167,356.5 312.833,356.5 304.5,356.5C 304.5,353.5 304.5,350.5 304.5,347.5 Z"
       id="path965" />
  </g>
  <g
     id="g971">
    <path
       style="opacity:1"
       fill="#292a27"
       d="M 329.5,347.5 C 330.5,347.5 331.5,347.5 332.5,347.5C 332.5,350.5 332.5,353.5 332.5,356.5C 331.5,356.5 330.5,356.5 329.5,356.5C 329.5,353.5 329.5,350.5 329.5,347.5 Z"
       id="path969" />
  </g>
  <g
     id="g975">
    <path
       style="opacity:1"
       fill="#2b2b2b"
       d="M 350.5,347.5 C 350.5,358.167 350.5,368.833 350.5,379.5C 343.5,379.5 336.5,379.5 329.5,379.5C 329.5,376.167 329.5,372.833 329.5,369.5C 334.833,369.5 340.167,369.5 345.5,369.5C 346.492,362.352 346.825,355.019 346.5,347.5C 347.833,347.5 349.167,347.5 350.5,347.5 Z"
       id="path973" />
  </g>
  <g
     id="g979">
    <path
       style="opacity:1"
       fill="#c7ea79"
       d="M 303.5,347.5 C 303.833,347.5 304.167,347.5 304.5,347.5C 304.5,350.5 304.5,353.5 304.5,356.5C 312.833,356.5 321.167,356.5 329.5,356.5C 329.5,356.833 329.5,357.167 329.5,357.5C 320.833,357.5 312.167,357.5 303.5,357.5C 303.5,354.167 303.5,350.833 303.5,347.5 Z"
       id="path977" />
  </g>
  <g
     id="g983">
    <path
       style="opacity:1"
       fill="#86a5a1"
       d="M 127.5,347.5 C 127.5,347.167 127.5,346.833 127.5,346.5C 134.5,346.5 141.5,346.5 148.5,346.5C 148.5,346.833 148.5,347.167 148.5,347.5C 144.5,347.5 140.5,347.5 136.5,347.5C 136.5,354.833 136.5,362.167 136.5,369.5C 140.5,369.5 144.5,369.5 148.5,369.5C 148.5,369.833 148.5,370.167 148.5,370.5C 144.167,370.5 139.833,370.5 135.5,370.5C 135.5,362.833 135.5,355.167 135.5,347.5C 133.167,347.5 130.833,347.5 128.5,347.5C 128.167,347.5 127.833,347.5 127.5,347.5 Z"
       id="path981" />
  </g>
  <g
     id="g987">
    <path
       style="opacity:1"
       fill="#006699"
       d="M 363.5,357.5 C 367.5,357.5 371.5,357.5 375.5,357.5C 375.5,385.5 375.5,413.5 375.5,441.5C 371.5,441.5 367.5,441.5 363.5,441.5C 363.5,413.5 363.5,385.5 363.5,357.5 Z"
       id="path985" />
  </g>
  <g
     id="g991">
    <path
       style="opacity:1"
       fill="#292928"
       d="M 390.5,357.5 C 397.5,357.5 404.5,357.5 411.5,357.5C 411.5,370.5 411.5,383.5 411.5,396.5C 404.5,396.5 397.5,396.5 390.5,396.5C 390.5,383.5 390.5,370.5 390.5,357.5 Z"
       id="path989" />
  </g>
  <g
     id="g995">
    <path
       style="opacity:1"
       fill="#086897"
       d="M 458.5,357.5 C 462.833,357.5 467.167,357.5 471.5,357.5C 471.5,385.5 471.5,413.5 471.5,441.5C 467.167,441.5 462.833,441.5 458.5,441.5C 458.5,413.5 458.5,385.5 458.5,357.5 Z"
       id="path993" />
  </g>
  <g
     id="g999">
    <path
       style="opacity:1"
       fill="#869e21"
       d="M 127.5,347.5 C 127.833,347.5 128.167,347.5 128.5,347.5C 128.5,358.167 128.5,368.833 128.5,379.5C 135.167,379.5 141.833,379.5 148.5,379.5C 148.5,376.5 148.5,373.5 148.5,370.5C 148.5,370.167 148.5,369.833 148.5,369.5C 148.833,369.5 149.167,369.5 149.5,369.5C 149.5,373.167 149.5,376.833 149.5,380.5C 142.167,380.5 134.833,380.5 127.5,380.5C 127.5,369.5 127.5,358.5 127.5,347.5 Z"
       id="path997" />
  </g>
  <rect
     style="fill:#4d4d4d"
     id="rect1059"
     width="90.349472"
     height="58.951431"
     x="372.29111"
     y="263.3591"
     rx="23.433071"
     ry="3.4015749" />
  <text
     xml:space="preserve"
     style="font-size:29.3333px;fill:#ffffff"
     x="391.51437"
     y="302.44644"
     id="text1271"><tspan
       sodipodi:role="line"
       id="tspan1269"
       x="391.51437"
       y="302.44644">000</tspan></text>
</svg>
